# xmcd
#
# Track frame offsets: 
#        150
#        18137
#        30252
#        47116
#        70594
#        84552
#        99245
#        120388
#        128253
#        153167
#
# Disc length: 2223 seconds
#
# Revision: 0
# Processed by: cddbd v1.5.2PL0 Copyright (c) Steve Scherf et al.
# Submitted via: ExactAudioCopy v0.95b4
#
DISCID=5f08ad0a
DTITLE=Michael Bloomfield - Count Talent and the Originals
DYEAR=2006
DGENRE=Blues
TTITLE0=Love Walk
TTITLE1=You Was Wrong
TTITLE2=Peach Tree Man
TTITLE3=When I Need You
TTITLE4=Sammy Knows How To Party
TTITLE5=I Need Your Loving
TTITLE6=Bad Man
TTITLE7=Saturday Night
TTITLE8=You're Changin'
TTITLE9=Let The People Dance
EXTD=
EXTT0=
EXTT1=
EXTT2=
EXTT3=
EXTT4=
EXTT5=
EXTT6=
EXTT7=
EXTT8=
EXTT9=
PLAYORDER=
